<svg width="24" height="24" viewBox="0 0 24 24" fill="none" xmlns="http://www.w3.org/2000/svg">
<path d="M14 1C9.45362 3.70138 9.99998 11.3125 9.99998 11.3125C9.99998 11.3125 8 10.625 8 7.53126C5.61387 8.95811 4 11.7006 4 14.75C4 19.3063 7.58172 23 12 23C16.4183 23 20 19.3063 20 14.75C20 8.04688 14 6.67187 14 1V1ZM12.7027 20.1573C11.0951 20.5706 9.46695 19.5618 9.06606 17.9039C8.66526 16.2461 9.64352 14.5669 11.2512 14.1536C15.1324 13.1557 15.6188 10.9049 15.6188 10.9049C15.6188 10.9049 17.5542 18.9099 12.7027 20.1573Z" fill="#FFB82D"/>
</svg>
